<svg width="37" height="16" viewBox="0 0 37 16" fill="none" xmlns="http://www.w3.org/2000/svg">
<path fill-rule="evenodd" clip-rule="evenodd" d="M4.8777 2.97387C5.56286 3.03167 6.24803 2.62708 6.67625 2.11413C7.09735 1.58673 7.37569 0.878716 7.30432 0.15625C6.69767 0.185149 5.94827 0.560831 5.52004 1.08823C5.1275 1.54339 4.79205 2.2803 4.8777 2.97387ZM13.0283 12.2792V1.01594H17.2035C19.359 1.01594 20.8649 2.51866 20.8649 4.71496C20.8649 6.91126 19.3304 8.42844 17.1464 8.42844H14.7555V12.2792H13.0283ZM7.29711 3.11111C6.69349 3.07595 6.14272 3.29487 5.69784 3.4717C5.41155 3.5855 5.16912 3.68186 4.98468 3.68186C4.7777 3.68186 4.52525 3.58034 4.24182 3.46636C3.87043 3.31701 3.44582 3.14627 3.00055 3.15446C1.97994 3.16891 1.0307 3.75411 0.509688 4.68609C-0.560883 6.55005 0.23134 9.30987 1.26623 10.8271C1.77296 11.5784 2.37962 12.402 3.17898 12.3731C3.53065 12.3597 3.78362 12.251 4.04542 12.1386C4.34683 12.0091 4.65994 11.8746 5.14883 11.8746C5.62078 11.8746 5.92019 12.0056 6.20761 12.1313C6.4809 12.2509 6.74335 12.3657 7.13296 12.3587C7.96087 12.3442 8.48188 11.6073 8.98862 10.8559C9.53547 10.0495 9.77579 9.26249 9.81225 9.14307L9.81652 9.12925C9.81565 9.12837 9.80892 9.12525 9.79706 9.11976L9.797 9.11973L9.79697 9.11972C9.61416 9.035 8.21693 8.3875 8.20353 6.6512C8.19007 5.19382 9.31178 4.45542 9.48836 4.33919C9.4991 4.33211 9.50635 4.32734 9.50963 4.32486C8.79591 3.25561 7.68252 3.14001 7.29711 3.11111ZM24.0196 12.366C25.1045 12.366 26.1108 11.8097 26.5676 10.9283H26.6033V12.2793H28.202V6.67294C28.202 5.0474 26.9173 3.99982 24.9403 3.99982C23.1061 3.99982 21.75 5.06185 21.7 6.52123H23.2559C23.3844 5.82766 24.0196 5.37251 24.8903 5.37251C25.9466 5.37251 26.539 5.87101 26.539 6.78854V7.40986L24.3836 7.5399C22.3781 7.66272 21.2932 8.49356 21.2932 9.93849C21.2932 11.3979 22.4138 12.366 24.0196 12.366ZM24.4834 11.0293C23.5627 11.0293 22.9774 10.5814 22.9774 9.89506C22.9774 9.18704 23.5413 8.77524 24.619 8.71022L26.5389 8.5874V9.22317C26.5389 10.278 25.6538 11.0293 24.4834 11.0293ZM33.5047 12.7199C32.8124 14.6922 32.0202 15.3425 30.3359 15.3425C30.2074 15.3425 29.7792 15.328 29.6792 15.2991V13.9481C29.7863 13.9626 30.0504 13.977 30.186 13.977C30.9496 13.977 31.3779 13.6519 31.642 12.8066L31.799 12.3081L28.8727 4.10812H30.6784L32.7125 10.762H32.7482L34.7823 4.10812H36.538L33.5047 12.7199ZM14.7553 2.48976H16.7466C18.2454 2.48976 19.1018 3.29893 19.1018 4.72218C19.1018 6.14544 18.2454 6.96183 16.7394 6.96183H14.7553V2.48976Z" fill="black"/>
</svg>
