<svg width="11" height="19" viewBox="0 0 11 19" fill="none" xmlns="http://www.w3.org/2000/svg">
<path d="M3.35582 6.08224V12.8106C3.36361 13.3037 3.56493 13.7739 3.91635 14.1198C4.26776 14.4657 4.74109 14.6596 5.23419 14.6596C5.72729 14.6596 6.20062 14.4657 6.55203 14.1198C6.90345 13.7739 7.10478 13.3037 7.11257 12.8106L7.11866 3.97302C7.12377 3.55161 7.04519 3.13338 6.88746 2.74257C6.72973 2.35176 6.496 1.99615 6.19981 1.69634C5.90362 1.39654 5.55087 1.15851 5.162 0.99605C4.77313 0.833593 4.35588 0.749939 3.93445 0.749939C3.51301 0.749939 3.09576 0.833593 2.70689 0.99605C2.31803 1.15851 1.96527 1.39654 1.66908 1.69634C1.3729 1.99615 1.13916 2.35176 0.981435 2.74257C0.823707 3.13338 0.745122 3.55161 0.750234 3.97302V12.8702C0.767253 14.0461 1.24634 15.1681 2.08394 15.9937C2.92155 16.8193 4.05039 17.2821 5.22646 17.2821C6.40253 17.2821 7.53137 16.8193 8.36897 15.9937C9.20658 15.1681 9.68566 14.0461 9.70268 12.8702V4.5561" stroke="white" stroke-width="1.49989" stroke-miterlimit="10" stroke-linecap="square"/>
</svg>
