<svg width="70" height="48" viewBox="0 0 70 48" fill="none" xmlns="http://www.w3.org/2000/svg">
<rect x="0.5" y="0.5" width="69" height="47" rx="5.5" fill="white" stroke="#D9D9D9"/>
<path d="M29.4684 47L68.9684 35.5V42C68.9684 44.7614 66.7299 47 63.9684 47H29.4684Z" fill="#FD6020"/>
<path d="M29.852 19.2217C30.6125 19.2217 31.4822 19.329 32.1342 19.7588V21.9082C31.5909 21.2635 30.7212 20.834 29.852 20.834C28.1136 20.9416 26.7013 22.4459 26.81 24.165V24.3799C26.8102 26.0989 28.223 27.3887 29.9613 27.3887C30.8304 27.3885 31.591 26.9581 32.1342 26.3135V28.4629C31.3736 28.7853 30.6128 29 29.7436 29C27.0272 28.9999 24.8539 26.743 24.8539 24.0566C24.8542 21.2632 27.0272 19.007 29.852 19.2217ZM46.9115 25.6689L49.5189 19.2217H51.475L47.4545 29H46.477L42.4564 19.2217H44.4125L46.9115 25.6689ZM21.1596 19.0068C22.1374 19.0068 23.1158 19.4364 23.8764 20.0811L22.8988 21.3711C22.4643 20.9413 21.9206 20.6182 21.3773 20.6182C20.7254 20.5107 20.1823 21.0486 20.0736 21.6934C20.0737 22.2304 20.3994 22.4453 21.4857 22.875C23.6589 23.7346 24.2023 24.3795 24.3109 25.6689V25.9912C24.2023 27.7105 22.7897 29 21.0512 28.8926C19.7473 28.8926 18.4433 28.2474 17.7914 27.0654L18.9867 25.8838C19.3127 26.636 20.0735 27.1729 20.9428 27.1729H21.0512C21.7031 27.1729 22.3549 26.5285 22.3549 25.7764C22.3549 25.3467 22.1378 25.0245 21.8119 24.8096C21.3774 24.5947 20.9427 24.3799 20.5082 24.2725C18.7698 23.7352 18.226 22.9827 18.226 21.6934V21.5859C18.3346 20.0817 19.6385 18.8995 21.1596 19.0068ZM9.85976 19.2217C12.4673 19.3292 14.5316 21.478 14.4232 24.0566C14.4232 25.4535 13.7715 26.7439 12.685 27.7109C11.7072 28.463 10.5119 28.8925 9.3168 28.7852H6.6V19.2217H9.85976ZM17.0307 28.7852H15.184V19.2217H17.0307V28.7852ZM57.56 20.834H54.1908V22.9824H57.4506V24.5947H54.1908V27.1729H57.56V28.7852H52.3441V19.2217H57.56V20.834ZM61.4711 19.2217C63.6439 19.2218 64.8392 20.189 64.8393 22.0156C64.9478 23.4125 63.9692 24.5947 62.6654 24.8096L65.6 28.7852H63.3178L60.8187 24.917H60.601V28.7852H58.7543V19.2217H61.4711ZM11.4896 21.5859C10.8378 21.0487 9.85979 20.7257 8.99062 20.833H8.44668V27.1729H8.99062C9.85983 27.2802 10.8378 26.9581 11.4896 26.4209C12.1415 25.7762 12.4672 24.9162 12.4672 23.9492C12.4671 23.0898 12.1413 22.2305 11.4896 21.5859ZM60.601 23.627H61.1449C62.3399 23.6269 62.8832 23.09 62.8832 22.123C62.8832 21.2635 62.34 20.7256 61.1449 20.7256H60.601V23.627Z" fill="black"/>
<path fill-rule="evenodd" clip-rule="evenodd" d="M37.6755 19C34.9591 19 32.6774 21.1491 32.6774 23.9429C32.6774 26.6292 34.8505 28.8858 37.6755 28.9932C40.5006 29.1007 42.6737 26.8441 42.7823 24.0503C42.6737 21.2565 40.5006 19 37.6755 19V19Z" fill="#FD6020"/>
</svg>
