<svg width="74" height="20" viewBox="0 0 74 20" fill="none" xmlns="http://www.w3.org/2000/svg">
<path fill-rule="evenodd" clip-rule="evenodd" d="M8.85291 0.000854492H3.11471C2.72204 0.000854492 2.38808 0.286244 2.32684 0.673752L0.00601952 15.3882C-0.0401088 15.6787 0.184749 15.9404 0.479264 15.9404H3.21874C3.61141 15.9404 3.94537 15.655 4.0066 15.2667L4.63256 11.298C4.69294 10.9093 5.02772 10.6243 5.41958 10.6243H7.23609C11.0161 10.6243 13.1974 8.79513 13.7674 5.17049C14.0241 3.58473 13.7783 2.33872 13.0355 1.46585C12.2201 0.507953 10.7734 0.000854492 8.85291 0.000854492ZM9.51494 5.37511C9.2012 7.43419 7.62795 7.43419 6.10676 7.43419H5.24085L5.84832 3.58861C5.88439 3.35642 6.08576 3.18518 6.32071 3.18518H6.71757C7.75379 3.18518 8.73138 3.18518 9.23654 3.77576C9.53746 4.12833 9.62987 4.65174 9.51494 5.37511ZM26.0058 5.3091H23.2579C23.0238 5.3091 22.8215 5.48034 22.7854 5.71292L22.6638 6.48134L22.4716 6.20294C21.8768 5.33939 20.5504 5.0509 19.2264 5.0509C16.1896 5.0509 13.5962 7.35071 13.091 10.577C12.8286 12.186 13.2017 13.7248 14.1146 14.798C14.9521 15.7847 16.1504 16.1959 17.5757 16.1959C20.0223 16.1959 21.3794 14.6225 21.3794 14.6225L21.2567 15.3863C21.2105 15.6783 21.4353 15.94 21.7281 15.94H24.2034C24.5971 15.94 24.9291 15.6546 24.9912 15.2663L26.4764 5.86125C26.5234 5.57198 26.2994 5.3091 26.0058 5.3091ZM22.1754 10.6573C21.9102 12.2272 20.6642 13.281 19.0753 13.281C18.2774 13.281 17.6394 13.0251 17.2302 12.5401C16.824 12.0587 16.6695 11.373 16.7988 10.6096C17.0465 9.05296 18.3135 7.96498 19.8783 7.96498C20.6583 7.96498 21.2928 8.22396 21.7106 8.7132C22.1292 9.20749 22.2954 9.89708 22.1754 10.6573ZM37.8792 5.30872H40.6407C41.0274 5.30872 41.253 5.74243 41.0332 6.05966L31.8491 19.3165C31.7004 19.5312 31.4554 19.659 31.1937 19.659H28.4357C28.0474 19.659 27.8207 19.2218 28.0455 18.9038L30.9052 14.8671L27.8638 5.94123C27.7585 5.63099 27.9876 5.30872 28.3177 5.30872H31.031C31.3836 5.30872 31.6946 5.54014 31.7963 5.87756L33.4104 11.2685L37.2191 5.65856C37.3682 5.43957 37.6159 5.30872 37.8792 5.30872Z" fill="#253B80"/>
<path fill-rule="evenodd" clip-rule="evenodd" d="M67.8185 15.3881L70.1734 0.404595C70.2095 0.172012 70.4111 0.000776571 70.6452 0H73.2964C73.5892 0 73.814 0.26248 73.7678 0.552918L71.4454 15.2666C71.3849 15.6549 71.0509 15.9403 70.6576 15.9403H68.2899C67.9971 15.9403 67.7723 15.6786 67.8185 15.3881ZM49.783 0.000777626H44.0437C43.652 0.000777626 43.318 0.286167 43.2567 0.673676L40.9359 15.3881C40.8897 15.6786 41.1145 15.9403 41.4077 15.9403H44.3524C44.6262 15.9403 44.8603 15.7407 44.903 15.4689L45.5616 11.2979C45.6221 10.9093 45.9568 10.6243 46.3486 10.6243H48.1642C51.945 10.6243 54.126 8.79506 54.6964 5.17041C54.9538 3.58465 54.7065 2.33864 53.9641 1.46578C53.149 0.507876 51.7035 0.000777626 49.783 0.000777626ZM50.445 5.37504C50.1321 7.43412 48.5587 7.43412 47.0367 7.43412H46.1715L46.78 3.58853C46.8161 3.35634 47.0157 3.18511 47.2514 3.18511H47.6482C48.6838 3.18511 49.6622 3.1851 50.167 3.77569C50.4683 4.12825 50.56 4.65166 50.445 5.37504ZM66.9343 5.30903H64.1884C63.9523 5.30903 63.752 5.48026 63.7166 5.71285L63.5951 6.48127L63.4021 6.20286C62.8073 5.33931 61.4817 5.05082 60.1576 5.05082C57.1208 5.05082 54.5282 7.35064 54.0231 10.5769C53.7614 12.186 54.133 13.7247 55.0458 14.7979C55.8849 15.7846 57.0816 16.1958 58.507 16.1958C60.9536 16.1958 62.3103 14.6224 62.3103 14.6224L62.1879 15.3862C62.1417 15.6782 62.3666 15.9399 62.6613 15.9399H65.1354C65.5272 15.9399 65.8611 15.6545 65.9225 15.2662L67.4084 5.86117C67.4539 5.5719 67.2291 5.30903 66.9343 5.30903ZM63.1043 10.6573C62.8407 12.2271 61.5931 13.2809 60.0038 13.2809C59.2075 13.2809 58.5683 13.025 58.1587 12.5401C57.7526 12.0586 57.6 11.3729 57.7277 10.6095C57.9766 9.05288 59.242 7.9649 60.8068 7.9649C61.5873 7.9649 62.2213 8.22389 62.6395 8.71313C63.0596 9.20741 63.2258 9.89701 63.1043 10.6573Z" fill="#179BD7"/>
</svg>
