<svg width="24" height="24" viewBox="0 0 24 24" fill="none" xmlns="http://www.w3.org/2000/svg">
  <!-- Trophy cup -->
  <path d="M8 21H16" stroke="#c2410c" stroke-width="1.5" stroke-linecap="round"/>
  <path d="M12 17V21" stroke="#c2410c" stroke-width="1.5" stroke-linecap="round"/>
  <path d="M7 4H17V9C17 12.3137 14.7614 15 12 15C9.23858 15 7 12.3137 7 9V4Z" stroke="#c2410c" stroke-width="1.5" stroke-linecap="round" stroke-linejoin="round"/>
  <!-- Left handle -->
  <path d="M7 5H5C4.44772 5 4 5.44772 4 6V8C4 9.65685 5.34315 11 7 11" stroke="#c2410c" stroke-width="1.5" stroke-linecap="round" stroke-linejoin="round"/>
  <!-- Right handle -->
  <path d="M17 5H19C19.5523 5 20 5.44772 20 6V8C20 9.65685 18.6569 11 17 11" stroke="#c2410c" stroke-width="1.5" stroke-linecap="round" stroke-linejoin="round"/>
  <!-- Star on trophy -->
  <path d="M12 7L12.5 8.5H14L12.75 9.5L13.25 11L12 10L10.75 11L11.25 9.5L10 8.5H11.5L12 7Z" fill="#c2410c"/>
</svg>
