<svg width="56" height="21" viewBox="0 0 56 21" fill="none" xmlns="http://www.w3.org/2000/svg">
<g clip-path="url(#clip0_558_307)">
<path fill-rule="evenodd" clip-rule="evenodd" d="M10.381 20.9735C13.4727 20.9735 16.2505 19.6219 18.1611 17.4746C17.2723 16.6982 15.9329 16.6511 14.9867 17.4184L14.8059 17.565C13.0734 18.97 10.5491 18.7625 9.06677 17.0933C8.2583 16.1829 6.87376 16.09 5.952 16.8842L3.86784 18.68C5.65288 20.1153 7.91719 20.9735 10.381 20.9735ZM13.7639 15.8954C15.4141 14.5572 17.7335 14.6052 19.3205 15.8977C20.2692 14.318 20.8149 12.4664 20.8149 10.4867C20.8149 8.28695 20.1411 6.24544 18.9894 4.5592C18.247 4.4003 17.4423 4.58589 16.8315 5.12993L16.6576 5.28478C14.9915 6.76867 12.4603 6.67847 10.9029 5.0798C10.0535 4.20789 8.66615 4.17924 7.78185 5.01539L5.35653 7.30863L4.02232 5.8833L6.44769 3.59007C8.10416 2.02376 10.7031 2.07739 12.2942 3.71072C13.1256 4.56414 14.4768 4.61231 15.3662 3.82014L15.5401 3.6653C16.08 3.18446 16.7047 2.8603 17.3586 2.68981C15.5101 1.01764 13.0638 0 10.381 0C5.08425 0 0.709358 3.96668 0.0366425 9.10556C1.64546 8.32962 3.62993 8.62821 4.9417 9.9783C5.76983 10.8306 7.10322 10.9205 8.03727 10.1872L9.39333 9.1224C11.0975 7.78425 13.5067 7.84901 15.1373 9.27686L17.7774 11.5886L16.4983 13.0641L13.8582 10.7524C12.931 9.94046 11.5611 9.9036 10.592 10.6645L9.23602 11.7293C7.51992 13.0768 5.07009 12.9115 3.54861 11.3455C2.66388 10.435 1.2169 10.4032 0.293447 11.2741L0 11.5508C0.219608 13.7411 1.10983 15.7325 2.46116 17.3144L4.68464 15.3985C6.41132 13.9107 9.005 14.0848 10.5195 15.7902C11.3108 16.6813 12.6583 16.7921 13.5832 16.042L13.7639 15.8954Z" fill="#9E1F19"/>
<path d="M28.3305 13.8502C28.3305 16.0444 30.0443 17.4837 32.744 17.4837C35.4672 17.4837 37.3451 16.0916 37.3451 13.8973C37.3451 12.1749 36.3828 11.2783 34.4342 10.8065L32.4153 10.3109C31.2885 10.0278 30.725 9.50873 30.725 8.73012C30.725 7.66835 31.4998 7.05491 32.8848 7.05491C34.223 7.05491 34.9977 7.78634 35.0446 8.94248H37.1576C37.1107 6.74816 35.4672 5.33252 32.9552 5.33252C30.4199 5.33252 28.6357 6.67738 28.6357 8.80089C28.6357 10.4997 29.5982 11.5143 31.6406 12.0097L33.6596 12.4817C34.8568 12.7884 35.2324 13.2603 35.2324 14.0389C35.2324 15.1007 34.3403 15.7377 32.7909 15.7377C31.3354 15.7377 30.4433 15.0298 30.4433 13.8502H28.3305Z" fill="#ECEDEE"/>
<path d="M45.2152 17.4837C48.0558 17.4837 49.9809 16.0916 50.5444 13.6142H48.4784C48.103 14.9355 46.9764 15.6433 45.262 15.6433C43.079 15.6433 41.8115 14.2984 41.6468 11.8682L50.521 11.8446V11.0188C50.521 7.59758 48.3848 5.33252 45.1215 5.33252C41.7877 5.33252 39.5106 7.83352 39.5106 11.4435C39.5106 15.0298 41.8349 17.4837 45.2152 17.4837ZM45.1215 7.19646C47.07 7.19646 48.3141 8.47059 48.3141 10.3817H41.694C41.9758 8.35263 43.1965 7.19646 45.1215 7.19646Z" fill="#ECEDEE"/>
<path d="M54.5354 2.92573C55.3335 2.92573 55.9906 2.26508 55.9906 1.46286C55.9906 0.637054 55.3335 0 54.5354 0C53.737 0 53.0794 0.637054 53.0794 1.46286C53.0794 2.26508 53.737 2.92573 54.5354 2.92573ZM53.4552 17.2005H55.662V5.6627H53.4552V17.2005Z" fill="#ECEDEE"/>
</g>
<defs>
<clipPath id="clip0_558_307">
<rect width="56" height="21" fill="white"/>
</clipPath>
</defs>
</svg>
